<mxfile host="app.diagrams.net" agent="Mozilla/5.0 (Windows NT 10.0; Win64; x64) AppleWebKit/537.36 (KHTML, like Gecko) Chrome/135.0.0.0 Safari/537.36" version="26.2.14">
  <diagram name="Sida-1" id="czMU5QYMddI1ixg7advu">
    <mxGraphModel dx="786" dy="498" grid="1" gridSize="10" guides="1" tooltips="1" connect="1" arrows="1" fold="1" page="1" pageScale="1" pageWidth="827" pageHeight="1169" math="0" shadow="0">
      <root>
        <mxCell id="0" />
        <mxCell id="1" parent="0" />
        <mxCell id="ZiuGaVSC9lnNVbTBkLzB-7" value="Goblin" style="swimlane;whiteSpace=wrap;html=1;startSize=40;" vertex="1" parent="1">
          <mxGeometry x="280" y="120" width="160" height="160" as="geometry">
            <mxRectangle x="280" y="120" width="140" height="40" as="alternateBounds" />
          </mxGeometry>
        </mxCell>
        <mxCell id="ZiuGaVSC9lnNVbTBkLzB-10" value="+Strenght : int" style="text;html=1;align=center;verticalAlign=middle;resizable=0;points=[];autosize=1;strokeColor=none;fillColor=none;" vertex="1" parent="ZiuGaVSC9lnNVbTBkLzB-7">
          <mxGeometry y="45" width="100" height="30" as="geometry" />
        </mxCell>
        <mxCell id="ZiuGaVSC9lnNVbTBkLzB-12" value="+Speed : int" style="text;html=1;align=center;verticalAlign=middle;resizable=0;points=[];autosize=1;strokeColor=none;fillColor=none;" vertex="1" parent="ZiuGaVSC9lnNVbTBkLzB-7">
          <mxGeometry y="70" width="90" height="30" as="geometry" />
        </mxCell>
        <mxCell id="ZiuGaVSC9lnNVbTBkLzB-14" value="" style="endArrow=none;html=1;rounded=0;exitX=0;exitY=0.75;exitDx=0;exitDy=0;entryX=1;entryY=0.75;entryDx=0;entryDy=0;" edge="1" parent="ZiuGaVSC9lnNVbTBkLzB-7">
          <mxGeometry width="50" height="50" relative="1" as="geometry">
            <mxPoint y="110" as="sourcePoint" />
            <mxPoint x="160" y="110" as="targetPoint" />
          </mxGeometry>
        </mxCell>
        <mxCell id="ZiuGaVSC9lnNVbTBkLzB-15" value="+Run() : int" style="text;html=1;align=center;verticalAlign=middle;whiteSpace=wrap;rounded=0;" vertex="1" parent="ZiuGaVSC9lnNVbTBkLzB-7">
          <mxGeometry x="10" y="110" width="70" height="30" as="geometry" />
        </mxCell>
        <mxCell id="ZiuGaVSC9lnNVbTBkLzB-16" value="+Punch() : int" style="text;html=1;align=center;verticalAlign=middle;whiteSpace=wrap;rounded=0;" vertex="1" parent="ZiuGaVSC9lnNVbTBkLzB-7">
          <mxGeometry x="10" y="130" width="80" height="30" as="geometry" />
        </mxCell>
        <mxCell id="ZiuGaVSC9lnNVbTBkLzB-20" style="edgeStyle=orthogonalEdgeStyle;rounded=0;orthogonalLoop=1;jettySize=auto;html=1;exitX=0.5;exitY=0;exitDx=0;exitDy=0;entryX=0;entryY=0.75;entryDx=0;entryDy=0;" edge="1" parent="1" source="ZiuGaVSC9lnNVbTBkLzB-17" target="ZiuGaVSC9lnNVbTBkLzB-7">
          <mxGeometry relative="1" as="geometry" />
        </mxCell>
        <mxCell id="ZiuGaVSC9lnNVbTBkLzB-17" value="BruteGoblin" style="swimlane;whiteSpace=wrap;html=1;startSize=30;" vertex="1" parent="1">
          <mxGeometry x="180" y="330" width="130" height="130" as="geometry" />
        </mxCell>
        <mxCell id="ZiuGaVSC9lnNVbTBkLzB-18" value="+BruteGoblin()" style="text;html=1;align=center;verticalAlign=middle;whiteSpace=wrap;rounded=0;" vertex="1" parent="ZiuGaVSC9lnNVbTBkLzB-17">
          <mxGeometry x="20" y="80" width="60" height="30" as="geometry" />
        </mxCell>
        <mxCell id="ZiuGaVSC9lnNVbTBkLzB-19" value="" style="endArrow=none;html=1;rounded=0;entryX=1;entryY=0.5;entryDx=0;entryDy=0;exitX=0;exitY=0.5;exitDx=0;exitDy=0;" edge="1" parent="1" source="ZiuGaVSC9lnNVbTBkLzB-17" target="ZiuGaVSC9lnNVbTBkLzB-17">
          <mxGeometry width="50" height="50" relative="1" as="geometry">
            <mxPoint x="200" y="394.5" as="sourcePoint" />
            <mxPoint x="270" y="394.5" as="targetPoint" />
          </mxGeometry>
        </mxCell>
        <mxCell id="ZiuGaVSC9lnNVbTBkLzB-24" style="edgeStyle=orthogonalEdgeStyle;rounded=0;orthogonalLoop=1;jettySize=auto;html=1;exitX=0.5;exitY=0;exitDx=0;exitDy=0;entryX=1;entryY=0.75;entryDx=0;entryDy=0;" edge="1" parent="1" source="ZiuGaVSC9lnNVbTBkLzB-21" target="ZiuGaVSC9lnNVbTBkLzB-7">
          <mxGeometry relative="1" as="geometry" />
        </mxCell>
        <mxCell id="ZiuGaVSC9lnNVbTBkLzB-21" value="MiniGoblin" style="swimlane;whiteSpace=wrap;html=1;startSize=30;" vertex="1" parent="1">
          <mxGeometry x="410" y="330" width="130" height="130" as="geometry" />
        </mxCell>
        <mxCell id="ZiuGaVSC9lnNVbTBkLzB-22" value="+MiniGoblin()" style="text;html=1;align=center;verticalAlign=middle;whiteSpace=wrap;rounded=0;" vertex="1" parent="ZiuGaVSC9lnNVbTBkLzB-21">
          <mxGeometry x="20" y="80" width="60" height="30" as="geometry" />
        </mxCell>
        <mxCell id="ZiuGaVSC9lnNVbTBkLzB-23" value="" style="endArrow=none;html=1;rounded=0;entryX=1;entryY=0.5;entryDx=0;entryDy=0;exitX=0;exitY=0.5;exitDx=0;exitDy=0;" edge="1" parent="ZiuGaVSC9lnNVbTBkLzB-21">
          <mxGeometry width="50" height="50" relative="1" as="geometry">
            <mxPoint y="64.5" as="sourcePoint" />
            <mxPoint x="130" y="64.5" as="targetPoint" />
          </mxGeometry>
        </mxCell>
      </root>
    </mxGraphModel>
  </diagram>
</mxfile>
